<svg width="590" height="590" viewBox="0 0 590 590" fill="none" xmlns="http://www.w3.org/2000/svg">
<g opacity="0.04" clip-path="url(#clip0_94_620)">
<path d="M559.744 34.6104H375.792C359.091 34.6104 345.537 48.1647 345.537 64.8656V248.818C345.537 265.519 359.091 279.073 375.792 279.073H463.835C462.685 327.24 451.491 365.785 430.312 394.769C413.611 417.642 388.319 436.582 354.493 451.528C338.941 458.366 332.225 476.761 339.486 492.131L361.27 538.12C368.289 552.884 385.655 559.359 400.662 552.884C440.72 535.578 474.546 513.673 502.138 487.048C535.783 454.554 558.837 417.884 571.302 376.979C583.768 336.074 590 280.283 590 209.486V64.8656C590 48.1653 576.445 34.6104 559.744 34.6104Z" fill="#050C33"/>
<path d="M64.163 552.763C103.737 535.517 137.381 513.613 165.155 487.048C199.102 454.554 222.277 418.005 234.742 377.403C247.208 336.8 253.439 280.828 253.439 209.486V64.8656C253.439 48.1647 239.886 34.6104 223.184 34.6104H39.232C22.5311 34.6104 8.97668 48.1647 8.97668 64.8656V248.818C8.97668 265.519 22.5311 279.073 39.232 279.073H127.275C126.125 327.24 114.931 365.785 93.752 394.769C77.0511 417.642 51.7577 436.582 17.9322 451.528C2.38103 458.366 -4.33565 476.761 2.92562 492.131L24.6489 537.999C31.6688 552.763 49.1563 559.298 64.163 552.763Z" fill="#050C33"/>
</g>
<defs>
<clipPath id="clip0_94_620">
<rect width="590" height="590" fill="white"/>
</clipPath>
</defs>
</svg>
